<svg width="291" height="94" viewBox="0 0 291 94" fill="none" xmlns="http://www.w3.org/2000/svg">
<rect x="116.063" y="58.7028" width="173.622" height="34.1982" rx="17.0991" stroke="#1D1D1D" stroke-width="2.63063"/>
<path d="M189.123 82.3018H182.652V70.969H183.836V81.2442H189.123V82.3018ZM195.76 82.3018V80.7865C195.271 81.8282 194.261 82.4596 192.966 82.4596C191.246 82.4596 190.125 81.4968 190.125 79.9973C190.125 78.3716 191.42 77.5193 193.945 77.5193C194.45 77.5193 194.829 77.5508 195.65 77.614V76.9195C195.65 75.5305 194.908 74.7098 193.645 74.7098C192.288 74.7098 191.435 75.5463 191.42 76.9037H190.41C190.457 75.057 191.735 73.8259 193.629 73.8259C195.571 73.8259 196.707 74.9623 196.707 76.8879V82.3018H195.76ZM191.183 79.9658C191.183 80.9759 191.956 81.6546 193.124 81.6546C194.671 81.6546 195.65 80.6445 195.65 79.0819V78.34C194.939 78.2769 194.45 78.2611 193.992 78.2611C192.098 78.2611 191.183 78.8135 191.183 79.9658ZM202.015 85.5217C199.9 85.5217 198.574 84.4168 198.479 82.5543H199.536C199.631 83.9117 200.515 84.6378 201.999 84.6378C203.64 84.6378 204.508 83.7697 204.508 82.1281V80.3919C204.003 81.5599 202.993 82.2386 201.762 82.2386C199.663 82.2386 198.258 80.5498 198.258 78.0244C198.258 75.4989 199.647 73.8259 201.746 73.8259C202.993 73.8259 204.035 74.5361 204.572 75.7515V73.9837H205.597V82.1124C205.597 84.2589 204.287 85.5217 202.015 85.5217ZM199.363 78.0244C199.363 80.0605 200.326 81.2916 201.92 81.2916C203.482 81.2916 204.524 80.0289 204.524 78.1033C204.524 76.0672 203.498 74.7729 201.92 74.7729C200.341 74.7729 199.363 76.004 199.363 78.0244ZM211.171 82.4596C208.882 82.4596 207.225 80.6445 207.225 78.1348C207.225 75.641 208.882 73.8416 211.171 73.8416C213.476 73.8416 215.133 75.641 215.133 78.1348C215.133 80.6445 213.476 82.4596 211.171 82.4596ZM211.171 81.4968C212.797 81.4968 214.012 80.2025 214.012 78.1348C214.012 76.0987 212.797 74.8045 211.171 74.8045C209.561 74.8045 208.346 76.0987 208.346 78.1348C208.346 80.2025 209.561 81.4968 211.171 81.4968ZM222.98 79.9815C222.98 81.5126 221.749 82.4596 219.697 82.4596C217.63 82.4596 216.367 81.4179 216.209 79.6974H217.267C217.346 80.8812 218.277 81.6231 219.697 81.6231C221.055 81.6231 221.876 81.1022 221.876 80.1552C221.876 79.3344 221.402 78.9556 220.139 78.7031L218.94 78.4663C217.361 78.1664 216.525 77.393 216.525 76.1934C216.525 74.8045 217.756 73.8259 219.571 73.8259C221.481 73.8259 222.744 74.8518 222.87 76.5091H221.828C221.718 75.3569 220.881 74.6782 219.571 74.6782C218.403 74.6782 217.598 75.2306 217.598 76.0987C217.598 76.9195 218.103 77.3141 219.334 77.5508L220.581 77.7876C222.239 78.1033 222.98 78.7978 222.98 79.9815Z" fill="#353535"/>
<path d="M128.595 44.5134H117.862V14.2927H128.595C138.192 14.2927 144 20.4379 144 29.2347C144 38.0316 137.981 44.5134 128.595 44.5134ZM124.26 19.8065V38.9996H128.258C134.277 38.9996 137.434 35.5061 137.434 29.2347C137.434 23.2158 134.277 19.8065 128.258 19.8065H124.26Z" fill="black"/>
<path d="M158.122 44.8922C151.388 44.8922 146.884 40.2202 146.884 33.1912C146.884 26.4989 151.556 21.6164 158.038 21.6164C165.151 21.6164 169.865 27.3828 168.813 34.7064H152.861C153.24 38.3683 155.007 40.3886 157.996 40.3886C160.563 40.3886 162.289 39.1259 162.962 36.8951H168.771C167.508 41.988 163.594 44.8922 158.122 44.8922ZM157.912 25.9096C155.176 25.9096 153.45 27.6774 152.945 31.0025H162.626C162.457 27.8878 160.69 25.9096 157.912 25.9096Z" fill="black"/>
<path d="M193.602 22.0373L185.353 44.5134H178.955L170.663 22.0373H176.977L182.322 37.8632L187.71 22.0373H193.602Z" fill="black"/>
<path d="M203.26 44.5134H196.862V14.2927H216.392V19.8486H203.26V27.4669H214.33V32.9807H203.26V44.5134Z" fill="black"/>
<path d="M230.122 44.8922C223.388 44.8922 218.884 40.2202 218.884 33.1912C218.884 26.4989 223.556 21.6164 230.038 21.6164C237.151 21.6164 241.865 27.3828 240.813 34.7064H224.861C225.24 38.3683 227.007 40.3886 229.996 40.3886C232.563 40.3886 234.289 39.1259 234.962 36.8951H240.771C239.508 41.988 235.594 44.8922 230.122 44.8922ZM229.912 25.9096C227.176 25.9096 225.45 27.6774 224.945 31.0025H234.626C234.457 27.8878 232.69 25.9096 229.912 25.9096Z" fill="black"/>
<path d="M264.34 37.316C264.34 42.0301 260.762 44.9343 254.364 44.9343C247.967 44.9343 244.389 41.8618 243.926 36.853H249.524C249.566 39.168 251.544 40.6411 254.449 40.6411C256.721 40.6411 258.447 39.9256 258.447 38.3262C258.447 36.8951 257.521 36.3059 255.375 35.885L251.334 35.1273C247.293 34.4118 244.852 32.181 244.852 28.6875C244.852 24.5206 248.43 21.6164 254.028 21.6164C259.668 21.6164 263.54 24.6048 263.961 29.4452H258.363C258.153 27.2565 256.511 25.9096 254.028 25.9096C251.881 25.9096 250.45 26.7093 250.45 28.1404C250.45 29.4873 251.376 30.0344 253.396 30.4132L257.732 31.213C262.109 32.0548 264.34 34.0751 264.34 37.316Z" fill="black"/>
<path d="M282.331 38.8313V43.9242C280.9 44.6397 279.553 44.9343 277.827 44.9343C273.198 44.9343 270.293 42.2827 270.293 37.2318V27.046H265.748V22.0373H270.293V15.3871H276.102V22.0373H282.542V27.046H276.102V35.885C276.102 38.4945 277.28 39.5468 279.385 39.5468C280.479 39.5468 281.489 39.2943 282.331 38.8313Z" fill="black"/>
<rect x="-0.230812" y="1.28148" width="47.427" height="20.4864" rx="10.2432" transform="matrix(-0.821252 0.570566 0.570566 0.821252 91.8958 34.9767)" fill="#F8AD00" stroke="black" stroke-width="1.84144"/>
<rect x="65.9496" y="19.2556" width="47.427" height="20.4864" rx="10.2432" transform="rotate(34.7897 65.9496 19.2556)" fill="#38A952" stroke="black" stroke-width="1.84144"/>
<rect x="0.230812" y="-1.28148" width="47.427" height="20.4864" rx="10.2432" transform="matrix(0.821252 -0.570566 -0.570566 -0.821252 11.4424 62.1735)" fill="#E8443D" stroke="black" stroke-width="1.84144"/>
<rect x="39.2301" y="79.741" width="47.427" height="20.4864" rx="10.2432" transform="rotate(-145.21 39.2301 79.741)" fill="#3F86F9" stroke="black" stroke-width="1.84144"/>
</svg>
