<svg width="56" height="56" viewBox="0 0 56 56" fill="none" xmlns="http://www.w3.org/2000/svg">
<path d="M28 0C22.4621 0 17.0486 1.64217 12.444 4.71885C7.83947 7.79553 4.25064 12.1685 2.13139 17.2849C0.0121319 22.4012 -0.542361 28.0311 0.538025 33.4625C1.61841 38.894 4.28515 43.8831 8.20102 47.799C12.1169 51.7149 17.106 54.3816 22.5375 55.462C27.969 56.5424 33.5988 55.9879 38.7151 53.8686C43.8315 51.7494 48.2045 48.1605 51.2812 43.556C54.3578 38.9514 56 33.5379 56 28C56 20.5739 53.05 13.452 47.799 8.20101C42.548 2.94999 35.4261 0 28 0ZM42.894 29.79L18.894 41.79C18.589 41.9424 18.2501 42.0143 17.9095 41.9989C17.5689 41.9835 17.2379 41.8812 16.948 41.7019C16.658 41.5225 16.4187 41.272 16.2528 40.9741C16.0869 40.6763 15.9999 40.3409 16 40V16C16.0002 15.6592 16.0875 15.3241 16.2535 15.0265C16.4195 14.729 16.6589 14.4787 16.9488 14.2996C17.2387 14.1205 17.5696 14.0184 17.91 14.0031C18.2505 13.9878 18.5892 14.0597 18.894 14.212L42.894 26.212C43.2258 26.3783 43.5047 26.6336 43.6997 26.9493C43.8946 27.2651 43.9979 27.6289 43.9979 28C43.9979 28.3711 43.8946 28.7349 43.6997 29.0506C43.5047 29.3664 43.2258 29.6217 42.894 29.788V29.79Z" fill="white"/>
</svg>
