<svg width="22" height="21" viewBox="0 0 22 21" fill="none" xmlns="http://www.w3.org/2000/svg">
<path d="M11.0042 6.14853C10.0452 6.14853 9.10771 6.41922 8.31034 6.92636C7.51297 7.43351 6.89149 8.15433 6.5245 8.99768C6.15751 9.84104 6.06149 10.769 6.24858 11.6643C6.43567 12.5596 6.89747 13.382 7.57558 14.0275C8.25369 14.673 9.11765 15.1125 10.0582 15.2906C10.9988 15.4687 11.9737 15.3773 12.8597 15.028C13.7457 14.6786 14.503 14.0871 15.0357 13.3281C15.5685 12.5691 15.8529 11.6768 15.8529 10.7639C15.8516 9.54023 15.3403 8.36703 14.4313 7.50175C13.5222 6.63648 12.2897 6.1498 11.0042 6.14853ZM11.0042 13.8408C10.3648 13.8408 9.73986 13.6604 9.20828 13.3223C8.6767 12.9842 8.26238 12.5036 8.01772 11.9414C7.77306 11.3792 7.70905 10.7605 7.83377 10.1636C7.9585 9.56677 8.26637 9.01852 8.71844 8.5882C9.17051 8.15789 9.74649 7.86484 10.3735 7.74612C11.0006 7.62739 11.6505 7.68832 12.2412 7.92121C12.8318 8.15409 13.3367 8.54847 13.6919 9.05447C14.0471 9.56047 14.2367 10.1554 14.2367 10.7639C14.2367 11.58 13.8961 12.3626 13.2899 12.9396C12.6837 13.5167 11.8615 13.8408 11.0042 13.8408ZM15.8529 0.763916H6.15541C4.65561 0.765443 3.21769 1.33324 2.15717 2.34272C1.09665 3.3522 0.50014 4.72091 0.498535 6.14853V15.3793C0.50014 16.8069 1.09665 18.1756 2.15717 19.1851C3.21769 20.1946 4.65561 20.7624 6.15541 20.7639H15.8529C17.3527 20.7624 18.7906 20.1946 19.8512 19.1851C20.9117 18.1756 21.5082 16.8069 21.5098 15.3793V6.14853C21.5082 4.72091 20.9117 3.3522 19.8512 2.34272C18.7906 1.33324 17.3527 0.765443 15.8529 0.763916ZM19.8935 15.3793C19.8935 16.3994 19.4678 17.3776 18.7101 18.0989C17.9523 18.8202 16.9246 19.2255 15.8529 19.2255H6.15541C5.08377 19.2255 4.05602 18.8202 3.29826 18.0989C2.54049 17.3776 2.11479 16.3994 2.11479 15.3793V6.14853C2.11479 5.12847 2.54049 4.15018 3.29826 3.42889C4.05602 2.7076 5.08377 2.30238 6.15541 2.30238H15.8529C16.9246 2.30238 17.9523 2.7076 18.7101 3.42889C19.4678 4.15018 19.8935 5.12847 19.8935 6.14853V15.3793ZM17.4692 5.76392C17.4692 5.99213 17.3981 6.21521 17.2649 6.40496C17.1317 6.59471 16.9424 6.7426 16.7209 6.82993C16.4994 6.91726 16.2556 6.94011 16.0205 6.89559C15.7853 6.85107 15.5694 6.74118 15.3998 6.57981C15.2303 6.41844 15.1149 6.21284 15.0681 5.98902C15.0213 5.7652 15.0453 5.5332 15.1371 5.32236C15.2288 5.11152 15.3842 4.93131 15.5835 4.80453C15.7829 4.67774 16.0172 4.61007 16.257 4.61007C16.5785 4.61007 16.8868 4.73164 17.1141 4.94802C17.3414 5.16441 17.4692 5.4579 17.4692 5.76392Z" fill="#1C1C1C"/>
</svg>
