<svg width="21" height="21" viewBox="0 0 21 21" fill="none" xmlns="http://www.w3.org/2000/svg">
<path fill-rule="evenodd" clip-rule="evenodd" d="M2.93781 0.763916C2.22625 0.763916 1.54384 1.04658 1.04069 1.54973C0.537548 2.05287 0.254883 2.73529 0.254883 3.44684C0.254883 4.1584 0.537548 4.84081 1.04069 5.34396C1.54384 5.84711 2.22625 6.12977 2.93781 6.12977C3.64937 6.12977 4.33178 5.84711 4.83493 5.34396C5.33807 4.84081 5.62074 4.1584 5.62074 3.44684C5.62074 2.73529 5.33807 2.05287 4.83493 1.54973C4.33178 1.04658 3.64937 0.763916 2.93781 0.763916ZM1.7183 3.44684C1.7183 3.12341 1.84678 2.81322 2.07548 2.58452C2.30419 2.35581 2.61437 2.22733 2.93781 2.22733C3.26124 2.22733 3.57143 2.35581 3.80014 2.58452C4.02884 2.81322 4.15732 3.12341 4.15732 3.44684C4.15732 3.77028 4.02884 4.08047 3.80014 4.30917C3.57143 4.53787 3.26124 4.66636 2.93781 4.66636C2.61437 4.66636 2.30419 4.53787 2.07548 4.30917C1.84678 4.08047 1.7183 3.77028 1.7183 3.44684ZM0.254883 7.34928C0.254883 7.15522 0.331973 6.96911 0.469195 6.83189C0.606417 6.69466 0.792529 6.61757 0.98659 6.61757H4.88903C5.08309 6.61757 5.2692 6.69466 5.40642 6.83189C5.54365 6.96911 5.62074 7.15522 5.62074 7.34928V20.0322C5.62074 20.2263 5.54365 20.4124 5.40642 20.5496C5.2692 20.6868 5.08309 20.7639 4.88903 20.7639H0.98659C0.792529 20.7639 0.606417 20.6868 0.469195 20.5496C0.331973 20.4124 0.254883 20.2263 0.254883 20.0322V7.34928ZM1.7183 8.08099V19.3005H4.15732V8.08099H1.7183ZM7.08415 7.34928C7.08415 7.15522 7.16124 6.96911 7.29846 6.83189C7.43569 6.69466 7.6218 6.61757 7.81586 6.61757H11.7183C11.9124 6.61757 12.0985 6.69466 12.2357 6.83189C12.3729 6.96911 12.45 7.15522 12.45 7.34928V7.7727L12.8744 7.59026C13.6061 7.27755 14.3824 7.08167 15.1749 7.00977C17.8822 6.76392 20.2549 8.89075 20.2549 11.6225V20.0322C20.2549 20.2263 20.1778 20.4124 20.0406 20.5496C19.9033 20.6868 19.7172 20.7639 19.5232 20.7639H15.6207C15.4267 20.7639 15.2406 20.6868 15.1033 20.5496C14.9661 20.4124 14.889 20.2263 14.889 20.0322V13.2029C14.889 12.8795 14.7605 12.5693 14.5318 12.3406C14.3031 12.1119 13.993 11.9834 13.6695 11.9834C13.3461 11.9834 13.0359 12.1119 12.8072 12.3406C12.5785 12.5693 12.45 12.8795 12.45 13.2029V20.0322C12.45 20.2263 12.3729 20.4124 12.2357 20.5496C12.0985 20.6868 11.9124 20.7639 11.7183 20.7639H7.81586C7.6218 20.7639 7.43569 20.6868 7.29846 20.5496C7.16124 20.4124 7.08415 20.2263 7.08415 20.0322V7.34928ZM8.54757 8.08099V19.3005H10.9866V13.2029C10.9866 12.4914 11.2693 11.809 11.7724 11.3058C12.2755 10.8027 12.958 10.52 13.6695 10.52C14.3811 10.52 15.0635 10.8027 15.5666 11.3058C16.0698 11.809 16.3524 12.4914 16.3524 13.2029V19.3005H18.7915V11.6225C18.7915 9.76489 17.171 8.29757 15.3085 8.46733C14.6687 8.52554 14.0419 8.68355 13.451 8.93562L12.0071 9.55514C11.8957 9.60297 11.7742 9.62239 11.6535 9.61166C11.5327 9.60092 11.4166 9.56035 11.3154 9.49361C11.2142 9.42687 11.1312 9.33604 11.0738 9.22928C11.0164 9.12252 10.9864 9.00317 10.9866 8.88196V8.08099H8.54757Z" fill="#1C1C1C"/>
</svg>
