<svg width="27" height="21" viewBox="0 0 27 21" fill="none" xmlns="http://www.w3.org/2000/svg">
<path d="M25.6274 0.763916H1.62744C1.36222 0.763916 1.10787 0.869273 0.920335 1.05681C0.732798 1.24435 0.627441 1.4987 0.627441 1.76392V18.7639C0.627441 19.2943 0.838155 19.8031 1.21323 20.1781C1.5883 20.5532 2.09701 20.7639 2.62744 20.7639H24.6274C25.1579 20.7639 25.6666 20.5532 26.0417 20.1781C26.4167 19.8031 26.6274 19.2943 26.6274 18.7639V1.76392C26.6274 1.4987 26.5221 1.24435 26.3345 1.05681C26.147 0.869273 25.8927 0.763916 25.6274 0.763916ZM13.6274 11.4077L4.19869 2.76392H23.0562L13.6274 11.4077ZM9.96619 10.7639L2.62744 17.4902V4.03767L9.96619 10.7639ZM11.4462 12.1202L12.9462 13.5014C13.1307 13.6708 13.372 13.7647 13.6224 13.7647C13.8729 13.7647 14.1142 13.6708 14.2987 13.5014L15.7987 12.1202L23.0487 18.7639H4.19869L11.4462 12.1202ZM17.2887 10.7639L24.6274 4.03642V17.4914L17.2887 10.7639Z" fill="#1C1C1C"/>
</svg>
