<svg width="30" height="21" viewBox="0 0 30 21" fill="none" xmlns="http://www.w3.org/2000/svg">
<path d="M12 15.0496L19.785 10.7639L12 6.4782V15.0496ZM29.34 3.86392C29.535 4.53534 29.67 5.43534 29.76 6.5782C29.865 7.72106 29.91 8.70677 29.91 9.56392L30 10.7639C30 13.8925 29.76 16.1925 29.34 17.6639C28.965 18.9496 28.095 19.7782 26.745 20.1353C26.04 20.3211 24.75 20.4496 22.77 20.5353C20.82 20.6353 19.035 20.6782 17.385 20.6782L15 20.7639C8.715 20.7639 4.8 20.5353 3.255 20.1353C1.905 19.7782 1.035 18.9496 0.66 17.6639C0.465 16.9925 0.33 16.0925 0.24 14.9496C0.135 13.8068 0.0899999 12.8211 0.0899999 11.9639L0 10.7639C0 7.63534 0.24 5.33534 0.66 3.86392C1.035 2.5782 1.905 1.74963 3.255 1.39249C3.96 1.20677 5.25 1.0782 7.23 0.992487C9.18 0.892487 10.965 0.84963 12.615 0.84963L15 0.763916C21.285 0.763916 25.2 0.992488 26.745 1.39249C28.095 1.74963 28.965 2.5782 29.34 3.86392Z" fill="#1C1C1C"/>
</svg>
